<svg width="2267" height="2903" viewBox="0 0 2267 2903" fill="none" xmlns="http://www.w3.org/2000/svg">
<path fill-rule="evenodd" clip-rule="evenodd" d="M1362.01 2060C1286.85 2083.42 1206.92 2096.04 1124.04 2096.04C1041.16 2096.04 961.228 2083.42 886.062 2060H1362.01ZM1870.67 1582H377.403C343.621 1493.51 325.117 1397.48 325.117 1297.12C325.117 855.892 682.806 498.203 1124.04 498.203C1565.27 498.203 1922.96 855.892 1922.96 1297.12C1922.96 1397.48 1904.45 1493.51 1870.67 1582Z" fill="#FFF9C9"/>
<path fill-rule="evenodd" clip-rule="evenodd" d="M472.418 1582H1775.65C1818.69 1489.78 1842.73 1386.9 1842.73 1278.41C1842.73 881.489 1520.96 559.719 1124.03 559.719C727.11 559.719 405.34 881.489 405.34 1278.41C405.34 1386.9 429.378 1489.78 472.418 1582Z" fill="#FDB321"/>
<path d="M905.06 1669.56H1350.18L1993.24 2352.3L1723.1 2269.11L2266.71 2805.07L848.165 2721.87L1836.42 2902.12L918.208 2853.59L0 2805.07L752.065 2039.13L441.773 2201.21L905.06 1669.56Z" fill="#FFF9C9"/>
<path d="M268.7 1598.32L371.971 1567.24H1876.1L2089.34 1653.78L1847.42 1633.22L2006.63 1751.79L1693.94 1668.12L1822.55 1730.75L1504.61 1658.08L976.779 1712.59H897.413V1739.84L797.966 1708.28L353.325 1775.7L665.53 1668.12L483.849 1689.64L569.908 1641.35L216.586 1669.08L375.318 1614.57L268.7 1598.32Z" fill="#FFF9C9"/>
<path d="M370.536 1597.84L465.68 1567.24H1782.39L1995.63 1632.26L1807.25 1612.66L1954.99 1724.06L1593.06 1632.26L1728.84 1694.9L1507.48 1638.96L924.664 1694.9L823.783 1689.64L870.638 1717.84L797.487 1694.9L467.114 1741.75L765.454 1638.96L545.046 1663.82L598.594 1632.26L300.254 1648.04L474.286 1597.84H370.536Z" fill="#FDB321"/>
<path d="M662.286 745.543L448.715 0L797.682 574.2L832.348 479.237L884.443 539.406L958.965 3.07573L1065.01 552.926L1169.91 437.586C1169.91 437.586 1148.96 585.285 1207.39 594.961C1265.83 604.637 808.959 775.275 808.959 775.275L662.286 745.479V745.543Z" fill="#FDB321"/>
</svg>
