<svg width="267" height="267" viewBox="0 0 267 267" fill="none" xmlns="http://www.w3.org/2000/svg">
<g clip-path="url(#clip0_978_92)">
<path d="M178 0H0V178H178C201.604 178 224.242 168.623 240.932 151.932C257.623 135.242 267 112.604 267 89C267 65.3957 257.623 42.7582 240.932 26.0675C224.242 9.37676 201.604 0 178 0ZM91.9667 172.067V5.93333C113.997 5.93333 135.126 14.685 150.704 30.263C166.282 45.841 175.033 66.9693 175.033 89C175.033 111.031 166.282 132.159 150.704 147.737C135.126 163.315 113.997 172.067 91.9667 172.067ZM50.3265 235.435H81.6664V241.837H58.5264V247.924H76.7002V253.947H58.5323V260.574H82.5683V267H50.3265V235.435ZM132.212 235.435L118.459 267H106.147L92.56 235.435H101.169L112.401 263.031L123.829 235.435H132.212ZM144.026 235.435H152.237V267H144.026V235.435ZM204.362 235.435V267H190.46L175.265 239.897V267H167.32V235.435H181.323L196.518 262.538V235.435H204.362ZM219.468 235.435H250.808V241.837H227.668V247.924H245.842V253.947H227.674V260.574H251.71V267H219.468V235.435ZM23.2349 235.435H0V267H23.2349C27.4208 267 31.4351 265.337 34.395 262.377C37.3548 259.418 39.0176 255.403 39.0176 251.217C39.0176 247.031 37.3548 243.017 34.395 240.057C31.4351 237.097 27.4208 235.435 23.2349 235.435ZM18.3933 260.283H8.2058V242.151H18.3933C26.6466 242.151 30.8533 245.581 30.8533 251.217C30.8533 256.854 26.6169 260.283 18.3933 260.283Z" fill="#FFF9C9"/>
</g>
<defs>
<clipPath id="clip0_978_92">
<rect width="267" height="267" fill="white"/>
</clipPath>
</defs>
</svg>
