<svg width="1464" height="555" viewBox="0 0 1464 555" fill="none" xmlns="http://www.w3.org/2000/svg">
<path d="M436.994 292L436.71 263.842C423.342 284.32 402.294 295.698 375.842 295.698C324.076 295.698 290.514 258.722 290.514 193.588C290.514 124.187 330.334 88.3493 395.752 88.3493C453.776 88.3493 491.889 117.361 499.284 167.989H430.168C425.617 147.795 413.102 137.271 397.743 137.271C376.411 137.271 363.328 153.199 363.328 193.872C363.328 234.261 377.549 250.473 398.597 250.473C414.24 250.473 427.324 240.803 433.012 218.333H397.459V181.926H499.569V292H436.994ZM505.924 292L579.306 92.9002H661.506L734.604 292H662.359L651.267 257.015H585.279L574.187 292H505.924ZM618.273 151.777L597.794 217.48H638.752L618.273 151.777ZM741.124 292V92.9002H831.857L846.362 150.355L861.153 208.663L875.943 150.355L890.449 92.9002H980.897V292H921.167L921.451 192.735L921.736 161.447L913.772 192.735L886.751 292H833.563L806.542 192.735L798.578 161.163L798.863 192.735L799.432 292H741.124ZM996.665 292V92.9002H1171.59V138.693H1067.77V169.411H1145.14V212.929H1067.77V247.629H1171.59V292H996.665Z" fill="#FFF9C9"/>
<g clip-path="url(#clip0_978_71)">
<path d="M112.487 412.165C203.423 356.976 285.362 334 354.802 334C424.242 334 449.995 356.976 405.976 412.165C341.246 493.319 211.515 555 84.6207 555C-42.2732 555 -21.1695 493.319 112.487 412.165ZM304.987 412.467C342.182 378.321 339.284 366.637 314.92 366.637C290.555 366.637 258.764 378.321 212.451 412.467C155.208 454.674 150.528 474.027 183.648 474.027C216.768 474.027 259.036 454.644 305.017 412.467H304.987Z" fill="#FFF9C9"/>
<path d="M570.977 546.338H413.832L452.145 336.66H531.427L532.061 383.094L533.269 449.153L585.318 383.094L622.303 336.66H697.932L570.947 546.338H570.977Z" fill="#FFF9C9"/>
<path d="M704.635 336.66H892.183L915.732 366.821H791.978L800.945 391.155H900.636L929.077 433.242H816.433L832.012 475.54H1000.6L1055.88 546.308H722.629L704.635 336.66Z" fill="#FFF9C9"/>
<path d="M905.891 336.66H1038.55C1090.39 336.66 1139.27 350.095 1178.73 374.52C1207.2 392.121 1217.43 407.519 1204.06 416.365C1240.02 422.403 1272.77 436.08 1311.99 460.293C1358.7 489.156 1409.96 520.163 1463.4 546.338H1325.76C1288.9 525.476 1252.7 498.878 1201.28 460.293C1181.27 445.469 1167.17 439.914 1151.16 439.914H1097.61L1216.29 546.338H1080.28L905.891 336.66ZM1014.91 365.825L1051.26 398.401H1097.33C1114.57 398.401 1117.05 392.393 1102.13 381.283C1088.22 370.867 1072 365.825 1056.45 365.825H1014.91Z" fill="#FFF9C9"/>
</g>
<defs>
<clipPath id="clip0_978_71">
<rect width="1463.34" height="221" fill="white" transform="translate(0 334)"/>
</clipPath>
</defs>
</svg>
