<svg width="1723" height="205" viewBox="0 0 1723 205" fill="none" xmlns="http://www.w3.org/2000/svg">
<g clip-path="url(#clip0_978_101)">
<path d="M127.164 162.771C88.1876 188.298 51.7449 203.827 25.4394 203.827C-24.932 203.827 1.49141 155.817 86.5963 86.1335C161.053 25.1362 220.226 0 268.947 0C312.56 0 321.283 21.2541 287.591 63.874H221.483C233.369 49.9094 233.997 42.8433 226.08 42.8433C214.745 42.8433 197.142 52.3113 159.383 86.9155C117.401 125.402 112.705 138.752 126.123 138.752C135.239 138.752 151.997 131.044 175.689 111.689H152.92L191.249 75.4087H277.178L166.397 198.297H91.4684L127.184 162.743L127.164 162.771Z" fill="#FFF9C9"/>
<path d="M351.638 3.35156H483.205L459.099 42.8713H382.914L368.356 62.1424H426.704L396.862 108.198H333.564L312.641 135.875H402.363L364.27 198.325H179.699L351.638 3.35156Z" fill="#FFF9C9"/>
<path d="M487.349 3.35156H540.569L528.683 39.6315L513.733 84.2065L543.555 39.6315L568.053 3.35156H614.535L610.763 39.6315L606.323 84.2065L625.654 39.6315L642.039 3.35156H693.471L617.619 198.297H536.306L547.897 138.11L558.447 85.5471L528.153 138.11L492.987 198.297H411.949L487.349 3.35156Z" fill="#FFF9C9"/>
<path d="M676.007 84.4857C686.694 25.5552 721.388 0 770.109 0C818.83 0 852.64 25.5552 861.284 84.4857C872.188 158.917 836.059 205 766.553 205C697.047 205 662.51 158.917 676.007 84.4857ZM787.358 84.765C786.847 52.814 779.853 44.2677 769.343 44.2677C758.832 44.2677 751.524 52.814 749.913 84.765C748.106 120.486 755.552 131.714 767.81 131.714C780.069 131.714 787.908 120.486 787.338 84.765H787.358Z" fill="#FFF9C9"/>
<path d="M856.883 3.35156H917.018L946.015 37.3413L980.198 78.0621L964.619 36.671L952.636 3.35156H1001.91L1091.92 198.297H1007.82L965.091 141.042L928.805 91.0491L942.734 142.048L957.861 198.297H888.473L856.883 3.35156Z" fill="#FFF9C9"/>
<path d="M1011.79 3.35156H1071.92L1111.8 37.3413L1159.01 78.0621L1130.17 36.671L1107.52 3.35156H1156.79L1309.2 198.297H1225.1L1164.06 141.042L1111.79 91.0491L1142.02 142.048L1175.14 198.297H1105.75L1011.79 3.35156Z" fill="#FFF9C9"/>
<path d="M1166.68 3.35156H1298.24L1340.68 42.8713H1264.49L1282.39 62.1424H1340.74L1388.46 108.198H1325.16L1350.87 135.875H1440.59L1507.66 198.325H1323.09L1166.68 3.35156Z" fill="#FFF9C9"/>
<path d="M1306.73 3.35156H1366.87L1427.47 37.3413L1499.51 78.0621L1445.45 36.671L1402.48 3.35156H1451.75L1723 198.297H1638.9L1542.97 141.042L1460.2 91.0491L1521.52 142.048L1588.94 198.297H1519.55L1306.73 3.35156Z" fill="#FFF9C9"/>
</g>
<defs>
<clipPath id="clip0_978_101">
<rect width="1723" height="205" fill="white"/>
</clipPath>
</defs>
</svg>
